<svg width="97" height="25" viewBox="0 0 97 25" fill="none" xmlns="http://www.w3.org/2000/svg">
<path fill-rule="evenodd" clip-rule="evenodd" d="M67.5418 24.224V18.88L69.4618 16.768L73.9098 24.224H79.3498L73.0458 13.792L79.3818 6.752H73.4618L67.5418 13.056V0H62.7418V24.224H67.5418ZM43.8227 23.424C42.4147 24.2133 40.8467 24.608 39.1187 24.608C37.3907 24.608 35.8174 24.2133 34.3987 23.424C32.98 22.6347 31.8494 21.552 31.0067 20.176C30.164 18.8 29.7427 17.2373 29.7427 15.488C29.7427 13.7173 30.164 12.1493 31.0067 10.784C31.8494 9.41867 32.98 8.34133 34.3987 7.552C35.8174 6.76267 37.3907 6.368 39.1187 6.368C40.8467 6.368 42.4147 6.76267 43.8227 7.552C45.2307 8.34133 46.356 9.41867 47.1987 10.784C48.0414 12.1493 48.4627 13.7173 48.4627 15.488C48.4627 17.2373 48.0414 18.8 47.1987 20.176C46.356 21.552 45.2307 22.6347 43.8227 23.424ZM14.8591 13.024L10.7951 24.224H6.63514L0.619141 6.752H5.57914L8.97114 16.896L12.7791 6.752H16.9391L20.7151 16.896L24.1071 6.752H29.0991L23.0511 24.224H18.8911L14.8591 13.024ZM39.1187 20.288C37.8174 20.288 36.756 19.84 35.9347 18.944C35.1134 18.048 34.7027 16.896 34.7027 15.488C34.7027 14.1013 35.1134 12.9547 35.9347 12.048C36.756 11.1413 37.8174 10.688 39.1187 10.688C40.42 10.688 41.476 11.1413 42.2867 12.048C43.0974 12.9547 43.5027 14.1013 43.5027 15.488C43.5027 16.896 43.0974 18.048 42.2867 18.944C41.476 19.84 40.42 20.288 39.1187 20.288ZM55.6343 14.816V24.224H50.8343V6.752H55.3143V9.376C55.7623 8.288 56.3969 7.54667 57.2183 7.152C58.0396 6.75733 58.9836 6.56 60.0503 6.56H61.0742V10.72H59.5703C58.3969 10.72 57.4476 11.0773 56.7223 11.792C55.9969 12.5067 55.6343 13.5147 55.6343 14.816ZM83.8654 0.384V3.904H81.9454V0.384H83.8654ZM83.8654 24.224V7.232H81.9454V24.224H83.8654ZM95.5809 24.384C95.2822 24.4053 95.0476 24.416 94.8769 24.416C93.4476 24.416 92.3542 24.016 91.5969 23.216C90.8396 22.416 90.4609 21.248 90.4609 19.712V9.056H87.2609V7.232H88.4769C89.0956 7.232 89.5809 7.04 89.9329 6.656C90.2849 6.272 90.4609 5.74933 90.4609 5.088V3.264H92.3809V7.232H96.0929V9.056H92.3809V19.712C92.3809 20.1813 92.4502 20.64 92.5889 21.088C92.7276 21.536 92.9996 21.8987 93.4049 22.176C93.8102 22.4533 94.3969 22.592 95.1649 22.592C95.3356 22.592 95.5436 22.5813 95.7889 22.56C96.0342 22.5387 96.2316 22.5173 96.3809 22.496V24.256C96.1462 24.32 95.8796 24.3627 95.5809 24.384Z" fill="#24053E"/>
</svg>
